<?xml version="1.0" encoding="utf-8"?>
<!-- Generator: Adobe Illustrator 26.1.0, SVG Export Plug-In . SVG Version: 6.00 Build 0)  -->
<svg version="1.1" xmlns="http://www.w3.org/2000/svg" xmlns:xlink="http://www.w3.org/1999/xlink" x="0px" y="0px"
	 viewBox="0 0 952.1 271.08" style="enable-background:new 0 0 952.1 271.08;" xml:space="preserve">
<style type="text/css">
	.st0{fill:#B3B3B3;}
	.st1{fill:#FFFF00;}
	.st2{fill:#FF5D0A;}
	.st3{fill:#FFFFFF;}
	.st4{fill:#999999;}
	.st5{fill:#00FF00;}
	.st6{fill:#FF00FF;}
	.st7{fill:#00FFFF;}
	.st8{opacity:0.66;fill:#FF00FF;}
	.st9{opacity:0.66;fill:#00FFFF;}
</style>
<g id="Layer_1">
	<g>
		<g>
			<path class="st2" d="M128.82,234.88c-18.08,5.05-33.76,1.94-29.41-15.5c4.35-17.44,14.86-67.4,17.68-79.55
				c0.27-1.18,1.41-1.93,2.6-1.72l29.88,3.73c1.23,0.21,2.02,1.41,1.74,2.63l-10.79,49.17l119.3-89.68
				c-11.71-47.73-50.6-86.41-102.12-95.35C106.49-0.27,57.13,22.73,29.93,63.28c26.49-8.24,91.36-23.95,113.03-29.61
				c19.6-5.12,33.01-0.92,29.41,14.94c-3.99,17.53-14.86,67.4-17.68,79.55c-0.27,1.18-1.41,1.93-2.6,1.72l-29.88-3.17
				c-1.23-0.21-2.02-1.41-1.74-2.63l10.79-49.17L12,164.56c11.7,47.75,50.6,86.45,102.13,95.38c51.2,8.88,100.55-14.11,127.75-54.63
				C216.24,213.44,150.66,228.78,128.82,234.88z"/>
		</g>
	</g>
	<g>
		<path class="st3" d="M857.84,62.02l1.23,0C858.42,62.01,858.05,62.01,857.84,62.02z"/>
	</g>
	<g>
		<path class="st4" d="M906.9,190.46v-16.39h-5.25c-0.59,0-1.09-0.5-1.09-1.09s0.5-1.09,1.09-1.09h12.97c0.59,0,1.09,0.5,1.09,1.09
			s-0.5,1.09-1.09,1.09h-5.28v16.39c0,0.65-0.53,1.21-1.21,1.21C907.46,191.66,906.9,191.1,906.9,190.46z"/>
		<path class="st4" d="M935.65,190.46v-15.27l-6.51,15.98c-0.12,0.32-0.35,0.5-0.68,0.5c-0.29,0-0.56-0.18-0.68-0.5l-6.49-15.98
			v15.27c0,0.65-0.56,1.21-1.21,1.21c-0.71,0-1.24-0.56-1.24-1.21v-16.63c0-1.12,0.91-2.06,2.06-2.06c0.88,0,1.62,0.53,1.92,1.3
			l5.63,13.89l5.66-13.89c0.29-0.77,1.03-1.3,1.92-1.3c1.15,0,2.06,0.94,2.06,2.06v16.63c0,0.65-0.53,1.21-1.24,1.21
			C936.21,191.66,935.65,191.1,935.65,190.46z"/>
	</g>
	<g>
		<path class="st3" d="M872.81,61.04l1.23,0C873.39,61.03,873.02,61.03,872.81,61.04z"/>
	</g>
	<g>
		<path class="st3" d="M457.82,212.11c-0.55-0.25-4.73-2.95-8.39-5.56c-3.46-2.47-6.44-4.87-6.48-4.91
			c-2.05-1.55-3.42-1.41-3.89-1.42c-5.26-0.03-31.9-0.21-35.78-0.21h-75.79c-0.18,0-0.28-0.2-0.18-0.35l93.07-127.24
			c0-0.01,0.01-0.01,0.01-0.02c0.98-1.63,1.84-3.89,1.84-5.85c0-5.55-4.24-9.46-9.47-9.46H311.18c-2.89,0-5.6,1.77-6.82,4.54
			c-2.19,4.94,1.8,10.78,7.21,10.78h87.51c0.18,0,0.28,0.2,0.18,0.35l-92.1,127.25c-1.2,1.5-1.85,3-1.94,5
			c-0.27,5.47,4.24,10.01,9.72,10.01h88.89c1.97,0,37.35,0,53.38,0C458.85,215.03,459.32,212.8,457.82,212.11z"/>
		<path class="st3" d="M916.22,53.4c-3.5,0-5.93,2.65-6.95,5.44l-45.52,92.21l-43.31-89.57c-1.15-2.48-2.91-4.7-5.66-5.18
			c0,0-0.23-0.04,0.18-0.05l-106.81-0.05l-3.5,0h-65.42c-16.17,0-29.85,4.24-39.56,12.26c-9.14,7.54-14.17,18.11-14.17,29.75
			c0,29.24,27.72,36.08,52.18,42.11l0.75,0.19c20.2,5.27,41.1,10.72,41.1,29.54c0,17-14.38,28.17-36.84,28.86
			c-35.93-0.08-125.76-0.27-139.11-0.27c-32.03,0-55.59-23.73-57.53-57.79h114.26c6.42,0,10.26-3.6,10.26-9.64
			c0-19.81-6.51-38.26-18.32-51.94c-13.02-15.08-31.23-23.06-52.67-23.06c-20.01,0-38.45,8.18-51.93,23.04
			c-13.29,14.65-20.61,34.42-20.61,55.66c0,22.36,7.53,42.56,21.2,56.87c13.64,14.28,32.86,22.14,54.11,22.14l128.68-0.16
			c0,0,17.59-0.18,26.67-1.51c9.08-1.33,18.34-5.84,24.8-11.36c9.26-7.92,14.16-18.79,14.16-31.44c0-32.14-28.9-39.45-54.4-45.9
			l-1.19-0.3c-20.63-5.23-38.44-9.75-38.44-25.94c0-15.62,14.71-26.12,36.6-26.12l65.18-0.02v0h36.58v133.78
			c0,4.85,3.97,8.76,8.82,8.68c4.74-0.07,8.55-3.94,8.55-8.68V71.14h49.61l47.36,97.37l-9.66,18.84
			c-5,10.43-10.54,12.52-17.85,12.52c-1.98,0-3.39-0.24-4.52-0.44c-0.76-0.13-1.42-0.24-2.04-0.24c-4.42,0-8.02,3.09-8.02,6.89
			c0,3.52,3.01,6.35,7.36,6.88c2.36,0.23,4.79,0.46,7.23,0.46c15.79,0,26.22-7.9,32.9-21.95l62.85-126.99l0.05-0.12
			c0.55-1.43,0.88-2.29,0.88-3.46C924.49,56.59,921.09,53.4,916.22,53.4z M499.26,71.48c38.39,0,52.98,32.81,53.55,55.33H446.05
			C447.67,99.19,466.35,71.48,499.26,71.48z"/>
		<path class="st3" d="M811.96,56.26l1.23,0C812.54,56.25,812.17,56.25,811.96,56.26z"/>
	</g>
</g>
<g id="Layer_2">
</g>
</svg>
